<?xml version="1.0" encoding="utf-8"?>
<!-- Generator: Adobe Illustrator 23.1.1, SVG Export Plug-In . SVG Version: 6.00 Build 0)  -->
<svg version="1.1" id="Layer_1" xmlns="http://www.w3.org/2000/svg" xmlns:xlink="http://www.w3.org/1999/xlink" x="0px" y="0px"
	 viewBox="0 0 1157 1280" style="enable-background:new 0 0 1157 1280;" xml:space="preserve">
<style type="text/css">
	.st0{fill:#FFFFFF;}
</style>
<g transform="translate(0.000000,1280.000000) scale(0.100000,-0.100000)">
	<path class="st0" d="M9470,12794c-225-20-489-75-650-134c-438-160-754-467-923-897c-142-359-187-669-187-1294v-347l-152-128
		c-168-140-424-391-534-524c-39-47-126-158-194-247l-123-163l26-37c76-109,203-258,254-298c32-25,74-48,93-51c80-15,92-51,36-107
		c-79-79-202-102-316-58c-111,42-247,169-356,332c-24,36-78,129-120,205c-74,136-122,210-130,201c-15-14,94-256,236-526
		c64-123,69-136,53-145c-11-6-143-10-343-11c-289,0-328,2-357,17c-70,39-91,106-143,468c-44,305-49,329-91,515
		c-49,210-113,424-204,680c-100,278-169,509-191,639c-16,90-15,255,2,409c4,34,3,57-3,57c-5,0-23-24-39-52c-27-50-29-61-32-193
		c-7-247,37-489,122-673c158-341,292-827,386-1404c54-332,70-463,70-571c0-117-16-152-85-189c-74-40-208-73-277-69
		c-31,2-62,149-93,451c-58,552-157,1015-360,1670c-155,502-174,670-95,868c84,208,221,328,390,340c205,14,433-156,569-426
		c70-138,168-457,246-799c25-109,59-256,75-328c55-236,66-192,25,95c-69,473-174,871-305,1150c-88,186-91,197-53,207
		c70,20,231,0,310-38c35-17,48-32,82-99c107-205,230-594,311-985c38-184,67-285,82-285c33,0-82,618-177,950c-60,210-146,381-272,540
		c-119,151-228,222-351,228c-197,11-634-114-808-230c-154-103-203-209-247-532l-22-161l-40,3c-1072,64-1253,72-1586,72
		c-497,0-790-32-1274-140c-431-96-554-146-632-263c-77-114-83-289-34-1012c45-668,49-735,76-1225c45-816,89-1763,145-3135
		c54-1314,69-1501,131-1602c23-37,156-156,273-245c146-110,236-143,491-178c216-30,419-65,617-106c397-81,576-107,823-120l120-6
		l-25,21c-29,23-131,44-473,96c-254,39-439,77-471,98c-47,31-135,387-96,387c5,0,38-16,73-35c59-33,77-37,233-55
		c93-10,212-26,264-34c52-9,121-16,152-16c76,0,88,16,88,125c0,130-32,162-105,105c-102-78-115-84-181-88c-35-2-101,1-146,8
		c-89,12-694,127-717,135c-10,4-12,34-10,148c5,172,15,197,80,197c72,0,130-42,198-142c18-27,36-48,41-48c6,0,10,21,10,48
		c0,60,21,92,60,92c16,0,62-7,102-15c40-9,150-29,243-46c94-16,211-39,262-50s102-19,115-17c32,4,48,43,48,114c0,133-46,173-122,107
		c-31-27-96-34-217-23c-242,22-606,96-747,152c-48,19-62,30-76,60c-12,25-26,39-43,43c-14,3-36,7-49,10c-82,17-316,522-380,822
		c-8,37-20,174-26,303s-24,449-40,710s-43,714-60,1005c-42,718-71,1153-90,1325c-13,115-13,247,1,256c19,11,65-45,107-129
		c22-45,97-217,167-382c295-699,436-993,494-1032c42-29,71-29,105-2c69,55,88,150,79,414c-7,212-1,235,44,179c63-77,209-423,253-598
		c18-73,20-96,11-125c-16-54-3-62,69-43c33,9,62,14,65,11s-2-23-10-44c-20-46-13-84,25-145c101-161,590-1512,590-1629
		c0-54-99,117-275,474c-133,270-205,436-205,472c0,25-53,88-67,80c-23-15,38-183,280-773c74-181,156-387,182-459
		c50-138,101-323,91-332c-20-21-83,86-182,310c-42,95-96,212-122,260c-86,164-98,129-22-69c117-306,128-350,88-378
		c-34-24-76-20-408,34c-624,101-973,140-938,105c23-24,422-93,1038-180l406-58l89-196c171-378,192-480,216-1036c13-282,3-456-26-501
		c-8-13-15-26-15-30c0-11,721,3,790,15c111,20,228,66,466,179c256,122,356,162,420,164c62,3,74-13,91-124c44-299,406-718,619-718
		c26,0,43-8,65-29c26-26,29-36,29-93c0-36-5-69-12-76c-21-21-109-13-355,29c-412,70-764,126-1223,194c-619,91-922,138-1229,190
		c-356,61-475,60-715-1c-525-134-2213-652-2348-720c-38-20-67-74-79-146c-12-73-30-106-62-112c-12-2-51-9-87-15
		c-98-16-135-67-90-124s193-104,510-162c417-77,951-180,1295-250C3899,632,7231,0,7390,0c55,0,183,36,300,86c58,24,236,114,395,200
		c744,400,1740,914,1925,993c79,34,120,69,120,102c0,34-52,76-116,94c-76,22-122,49-212,124s-132,97-210,110c-78,12-108,29-188,101
		c-95,87-129,81-143-25c-11-76-33-90-94-59c-94,49-258,210-630,620c-306,338-411,465-453,551c-58,116-40,139,198,252l148,70l129-148
		c340-387,566-534,941-612c139-29,464-37,623-15c360,51,626,172,854,389c241,231,401,528,508,943c188,728,51,1593-343,2179
		c-171,254-445,512-644,605c-153,72-320,92-727,89l-285-2l-38,114c-134,398-214,814-225,1174c-6,189,9,332,42,395
		c22,42,78,60,193,60c271,1,500,28,657,77c363,115,644,409,882,927c211,460,266,915,187,1541s-285,1075-683,1488
		c-193,200-353,300-561,348C9856,12791,9582,12804,9470,12794z M9528,12656c197-64,403-184,544-315c323-301,537-791,623-1421
		c63-461,60-592-20-925c-212-889-542-1367-1029-1490c-385-98-743-40-1062,171c-383,254-707,801-766,1291c-18,151-18,1126,0,1276
		c43,359,220,738,462,990c171,179,363,300,597,376c101,33,155,46,313,75c14,2,77,3,140,2C9422,12683,9461,12677,9528,12656z
		 M5795,11580c37-14,46-29,34-52c-37-69-206-72-306-5c-57,38-66,63-26,70C5546,11602,5764,11592,5795,11580z M4712,10510
		c37-73,16-189-40-226c-34-22-244-85-303-91c-57-6-111,19-157,72c-42,47-41,69,8,104c79,57,398,184,450,179
		C4687,10546,4700,10534,4712,10510z M2585,10376c540-32,872-64,924-89c50-24,35-114-22-140c-71-32-282-29-872,13
		c-647,46-1021,61-999,41c40-40,1115-122,1809-137c261-6,631,4,808,22l57,6v-119c0-135-9-162-60-180c-41-14-450-17-519-4
		c-58,12-79,35-89,101l-8,55l-38-57c-54-81-81-92-245-96c-181-5-139-9-1693,157c-98,11-181,22-185,24c-13,8,3,257,21,327
		c28,110-3,104,456,97C2147,10394,2442,10384,2585,10376z M1195,10256c96-25,165-79,165-128c0-31-39-78-63-78c-66,0-203,80-245,143
		l-26,39l23,19C1076,10273,1125,10275,1195,10256z M4830,10231c15-28,12-138-4-169c-18-34-51-65-96-87c-50-26-194-73-245-80
		c-38-6-47-4-68,17c-29,29-69,132-65,167c4,33,46,54,234,121C4741,10255,4812,10264,4830,10231z M1298,9953c91-45,166-115,175-163
		c29-156,56-581,87-1355c24-600,35-857,55-1235c14-267,24-477,75-1630c30-681,69-1446,85-1703c15-233,18-409,6-462
		c-4-21-13-31-28-33c-57-8-234,116-299,210c-39,58-35,9-69,773c-14,319-35,758-45,975c-11,217-33,694-50,1060
		c-31,683-52,1125-70,1450c-101,1843-114,2128-98,2148C1141,10010,1212,9996,1298,9953z M4285,9698c31-143,55-577,90-1628
		c29-857,52-1485,95-2500c70-1668,90-2212,90-2453v-165l-87-16c-92-17-472-63-558-68l-50-3l-22,555c-29,733-64,1490-118,2575
		c-73,1453-100,2113-115,2795c-10,440-2,809,19,862c18,48,130,65,443,67l208,1L4285,9698z M2670,9464c354-32,408-52,386-139
		c-13-51-95-70-341-80c-168-6-482,7-573,25c-85,16-106,30-110,70c-8,74,46,124,152,141C2247,9491,2465,9483,2670,9464z M7815,9248
		c65-51,72-138,19-248c-60-127-82-252-50-296c13-17,28-19,168-20c172-1,290-19,542-84c317-81,507-172,411-196c-43-11-199,7-584,67
		c-312,48-469,89-551,143c-81,54-136,255-96,351c10,23,22,35,34,35c76,0,81,164,7,229c-19,17-35,33-35,36s24,5,54,5
		C7774,9270,7794,9264,7815,9248z M7530,9190c44-32,75-141,48-168c-20-20-40-14-102,28c-32,22-65,40-73,40s-22-13-31-30
		c-22-38-32-38-32,0C7340,9170,7451,9246,7530,9190z M7692,9153c22-20,25-81,3-89c-32-13-86,65-64,92C7646,9175,7669,9174,7692,9153
		z M2510,8975c420-31,586-66,605-124c8-26-16-71-61-115c-64-63-69-63-338-32c-283,32-566,72-618,86c-20,6-47,19-59,29
		c-21,17-22,21-11,60c17,55,50,91,92,101C2175,8993,2288,8991,2510,8975z M7469,8925c38-19,124-128,156-196c61-131,13-271-125-363
		c-30-20-82-21-118-2c-51,26-119,110-136,167c-45,152,11,340,119,394C7403,8944,7433,8944,7469,8925z M8088,8898c30-30,1-93-56-126
		c-57-31-94-29-126,9c-29,34-31,42-15,71C7915,8896,8057,8929,8088,8898z M2455,8419c560-55,899-122,868-172c-8-13-299-3-513,18
		c-493,47-801,95-857,131C1865,8453,2037,8461,2455,8419z M8074,8351c211-48,293-128,224-217c-58-74-88-73-88,1c0,52-31,98-64,93
		c-21-3-22-8-14-77c5-44-30-53-169-46c-296,15-444,58-451,133c-3,25,4,40,35,72c60,64,92,71,278,66C7934,8372,8013,8364,8074,8351z
		 M5818,8263c7-11,5-33-5-66c-20-67-9-77,55-53c26,10,91,31,146,47c183,54,212,39,204-104c-5-96-44-200-110-294
		c-106-151-112-196-62-493c31-188,38-250,38-375c1-139-1-153-23-195c-52-100-260-320-302-320c-52,0-83,166-78,415
		c7,331,3,620-10,705c-15,106-31,170-41,170c-4,0-10-27-14-61c-15-151-141-277-222-224c-64,42-73,192-18,302c40,79,86,110,183,122
		c95,12,108,24,92,85c-9,37-9,53,3,81c8,19,22,38,31,41c28,11,17,49-25,83c-22,17-40,38-40,45c0,18,27,41,91,76
		C5772,8284,5805,8288,5818,8263z M5547,8133c30-72-4-211-60-247c-12-9-51-23-86-32c-108-27-171,6-171,89c0,104,139,227,258,227
		C5528,8170,5532,8168,5547,8133z M7204,7941c3-5-33-25-82-44c-48-19-118-49-156-66s-71-30-73-27c-8,8,134,107,182,126
		C7128,7950,7195,7956,7204,7941z M8186,7938c11-17-57-72-204-163c-216-135-295-233-343-424c-26-105-21-141,25-185
		c92-86,88-238-7-310c-41-32-87-42-117-26c-25,14-50,67-50,109c0,16-4,32-9,35c-9,6-15-6-51-106c-69-189-249-138-250,72
		c0,121,74,209,196,231c101,19,132,40,105,73c-18,21-151,54-308,76c-232,32-327,59-309,88c14,23,79,24,204,3c155-26,315-43,348-36
		c13,3,35,7,49,10s25,12,25,21c0,29-63,42-253,53c-381,23-654,95-539,143c18,8,98,10,257,8c471-9,555-7,613,14c31,10,102,54,170,105
		c169,125,246,171,342,207C8125,7952,8177,7953,8186,7938z M6650,7904c63-9,117-18,118-19c2-2-42-58-97-124c-56-67-113-145-128-174
		l-28-52v-216c0-168-3-219-14-232c-19-23-78-22-146,4c-60,22-182,107-178,124c2,6,35,13,75,16c77,7,123,23,132,45
		c13,35-19,57-104,70c-91,13-146,109-144,249c1,88,36,166,106,231C6340,7918,6430,7935,6650,7904z M5270,7696c24-65,94-1246,74-1266
		c-14-14-251-120-283-126c-27-6-28-4-39,53c-14,71-37,301-53,523c-14,190-18,647-6,702c18,85,105,132,255,137
		C5254,7720,5262,7717,5270,7696z M8525,7691c157-29,303-67,354-94c57-29,78-70,92-178c37-289-87-558-236-509c-51,17-109,90-147,184
		c-46,117-45,203,5,345c20,58,35,106,33,108c-7,8-70-73-87-111c-49-111-46-279,7-428c32-87,40-143,24-153c-23-14-60,6-84,48
		c-31,53-45,109-54,217c-8,98-20,108-75,66c-66-51-210-58-407-21c-150,29-180,57-180,168c0,184,152,342,365,378
		C8210,7723,8401,7713,8525,7691z M3060,7450c12-44,4-90-15-90c-18,0-29,53-21,96C3033,7501,3047,7499,3060,7450z M3222,7383
		c34-31,11-93-35-93c-27,0-57,28-57,53C3130,7391,3186,7416,3222,7383z M8150,6985c39-8,108-19,152-24c96-11,128-33,128-91
		c0-20-6-44-13-54c-12-16-20-16-162,4c-82,12-166,29-187,37c-65,26-93,77-68,124C8013,7005,8052,7006,8150,6985z M7877,6964
		c17-44-80-216-243-434c-206-275-232-334-210-476c7-46,6-54-14-74c-18-18-29-21-64-16c-75,12-101,66-75,161c29,106,215,408,420,682
		C7813,6970,7859,7009,7877,6964z M5529,6869c23-38,38-147,46-329c3-74,22-450,41-835c36-686,50-1302,31-1367c-5-19-16-29-35-33
		c-15-3-52-12-82-20c-48-12-57-12-71,1c-35,31-51,198-70,729c-17,463-18,1445-1,1603c14,133,35,224,58,260
		C5468,6911,5506,6907,5529,6869z M6370,6644c65-21,131-73,172-135c189-288,138-800-90-901c-28-13-77-22-138-25c-91-6-95-5-161,27
		c-145,71-257,226-269,372c-18,206,49,449,156,571C6133,6659,6238,6688,6370,6644z M8022,6639c-4-43,18-51,165-61
		c158-10,323-41,371-69c36-21,96-25,138-9c40,16,82,3,122-37c34-35,37-35,96-30c34,3,119,24,190,46c183,59,296,75,481,68
		c224-8,364-43,570-142c196-94,323-199,459-379c235-310,365-622,426-1021c27-179,43-471,35-650c-23-537-44-659-161-917
		c-147-324-343-571-579-727c-186-123-359-179-581-188c-223-10-426,37-662,153c-292,144-471,342-678,751c-89,176-135,302-154,423
		c-7,45-14,250-17,516c-8,730,21,1025,128,1292c42,105,81,174,235,413c136,210,161,255,152,265c-3,3-53,9-110,13
		c-111,9-173,29-235,77c-112,85-318,74-374-20c-12-20-25-36-29-36s-11,33-15,73c-4,39-12,80-17,91c-10,19-14,19-150,0
		c-48-7-48-7-48,23c0,61,88,114,185,110C8023,6665,8025,6664,8022,6639z M7370,6555c15-18,3-71-30-135c-53-104-120-82-120,40
		c0,69,35,110,95,110C7341,6570,7362,6564,7370,6555z M5746,6342c47-31,43-126-6-152c-28-15-70,27-70,70c0,47,26,90,55,90
		C5731,6350,5740,6346,5746,6342z M8247,6330c80-49,80-160,0-247c-50-54-78-67-112-51c-56,25-95,190-61,257
		C8104,6346,8188,6367,8247,6330z M7830,6284c43-20,93-52,112-71c33-34,33-35,33-126c0-80-3-99-26-142c-27-51-78-95-110-95
		c-24,0-57,33-63,62c-2,13-8,57-14,98c-5,41-21,104-37,140c-50,120-59,146-52,164C7683,6340,7732,6330,7830,6284z M7605,6234
		c28-11,47-64,52-146c15-213-95-341-267-308c-27,5-63,16-80,25c-62,32-23,93,69,110c114,20,131,41,131,170
		C7510,6210,7541,6258,7605,6234z M5797,5886c48-55,159-240,180-301c21-64,14-100-50-250c-75-176-91-233-91-335c-1-69,3-93,21-126
		c43-80,128-124,239-124c74,0,101-25,114-105c6-33,10-231,10-440v-380l-138-64c-177-84-273-124-279-118c-11,11-22,148-28,347
		c-4,118-13,307-21,418c-23,340-37,829-31,1167c4,304,8,355,27,355C5755,5930,5776,5910,5797,5886z M7450,5711c52-12,113-21,136-21
		c92,0,110-69,146-550c6-91,12-294,12-451l1-286l-32-63c-40-76-41-90-8-90c41,0,60-41,59-129c0-92-26-151-74-171c-34-14-25-30,17-30
		c28,0,63-45,63-80c0-85-65-179-175-250c-36-23-64-44-62-46c1-2,36,6,77,16c96,25,115,25,141-1c17-17,20-30,16-59
		c-7-53-33-88-89-116c-52-27-59-41-28-69c26-24,26-84,0-159c-31-93-110-231-164-292c-71-80-186-131-202-89c-7,17,114,326,158,403
		c16,29,42,60,56,69c15,9,29,18,30,19c2,2-1,25-7,53c-15,69-38,311-56,591c-42,644-103,1243-166,1618c-25,151-28,186-18,199
		C7295,5743,7296,5743,7450,5711z M6153,5465c10-27,31-127,47-222c40-234,47-246,144-236c62,7,96-3,96-27c0-67-255-97-296-36
		c-13,20-12,35,3,129c20,124,14,160-29,165c-41,5-52-24-36-99c8-42,9-65,2-77c-19-30-59-52-107-58c-55-8-87,12-87,53
		c0,102,189,475,234,460C6130,5515,6143,5492,6153,5465z M7120,4708c68-27,154-74,170-93c17-20-16-20-185,1c-156,19-255,15-310-13
		c-22-12-71-49-110-83c-73-65-110-88-122-76c-17,16-6,74,21,109c35,46,143,119,224,152C6924,4752,7007,4753,7120,4708z M1890,4658
		c34-55,63-165,64-244c1-42-3-74-9-76c-5-1-19,12-31,29c-27,40-93,224-101,280c-6,43-6,43,26,43C1864,4690,1875,4683,1890,4658z
		 M6805,4381c22-10,71-44,109-75c81-67,147-103,208-112c78-13,152-117,133-191c-26-104-285-222-285-129c0,26,19,46,67,70
		c42,21,57,49,43,76c-17,32-53,41-110,28c-60-14-75-5-84,51c-7,48-49,86-109,101c-144,35-202,127-114,180
		C6703,4405,6753,4405,6805,4381z M5657,4208c40-45,51-107,62-359c8-168,11-195,29-218c17-23,26-26,73-25c43,1,80,13,184,61
		c199,91,308,123,341,98c18-13,19-30,18-272c0-182-5-294-17-379c-21-152-32-184-61-184c-65,0-192,146-284,327c-58,114-85,153-98,140
		c-11-11,37-148,96-276c104-226,110-266,45-349c-19-25-35-49-35-54s19,3,43,17c77,48,147,77,171,71c12-3,56-30,97-60
		c75-56,154-102,309-179c106-53,112-72,30-102c-82-29-311-27-435,3c-352,87-500,226-618,583c-39,119-72,263-121,529
		c-80,442-82,548-7,596C5566,4234,5624,4244,5657,4208z M7309,3845c41-20,64-77,69-164c8-147-48-223-92-123c-33,76-55,246-37,281
		C7263,3864,7272,3865,7309,3845z M2522,3433c53-61,114-275,89-313c-16-23-46,12-80,94C2471,3358,2465,3497,2522,3433z M2265,2348
		c20-87,26-152,31-373c9-351-12-536-62-543c-11-2-29,7-40,19c-16,18-20,39-23,148c-5,195,29,619,60,734
		C2242,2375,2257,2381,2265,2348z M2458,2037c4-326-4-430-30-435c-20-4-24,15-38,163c-20,223-8,464,29,559c9,23,14,27,24,17
		C2452,2332,2456,2249,2458,2037z M1331,2061c24-19,23-10,38-268c2-27,31-10,70,41c65,84,74,82,105-22c29-100,77-155,166-195
		c66-29,99-62,82-79c-23-23-323,23-872,132c-222,45-350,60-350,42c0-24,283-89,790-182c212-39,473-89,580-111
		c462-95,652-133,933-184c163-30,433-80,600-111c377-69,1062-199,1567-298c888-173,1301-249,1637-300c320-49,410-59,558-60
		c113-1,139,2,200,23c172,59,595,249,1120,503c568,276,1011,475,1132,511c45,13,53,14,63,1c7-7,10-20,7-28c-3-7-234-130-514-271
		C7923,535,7560,328,7560,243c0-60,67-38,423,134c262,126,398,185,406,177c7-7-26-29-164-112c-461-278-786-416-891-382
		c-39,13-64,55-64,109c0,99-73,130-450,191c-533,86-1214,210-2305,420c-827,160-1044,202-1750,339c-396,77-954,185-1240,241
		C470,1565,370,1592,370,1668c0,44,21,105,43,131c49,52,177,102,517,201C1220,2083,1290,2094,1331,2061z M6730,1884
		c198-20,526-63,1025-135c700-100,992-152,1042-184c23-15,23-18,9-34c-24-26-176-103-306-155c-125-49-270-91-353-101
		c-88-11-596,61-1377,195c-666,114-858,140-1050,140h-115l115,76c137,90,291,167,377,189C6245,1912,6433,1915,6730,1884z M424,1445
		c54-14,110-32,124-39c26-14,25-14-31-21c-67-9-170,0-245,19c-54,15-112,50-112,68S313,1474,424,1445z M5949,1470
		c31-16,50-84,71-248c26-198,28-423,6-457c-21-32-83-48-154-40c-214,23-305,42-332,67c-24,22-24,28-4,93c8,28,18,94,21,147
		c7,116,15,133,44,98c76-94,91-110,100-105c5,4,9,89,9,195c0,182,1,190,23,215C5765,1471,5904,1494,5949,1470z M9962,1413
		c22-20,23-52,3-79c-14-18-16-18-45,14c-29,31-38,61-23,75C9909,1435,9943,1430,9962,1413z M8086,1189c11-18-18-29-70-27
		c-49,3-73,22-39,31C8013,1202,8079,1200,8086,1189z M3129,905c66-17,161-57,161-67c0-12-98-10-166,3c-87,16-220,69-203,81
		C2939,934,3058,924,3129,905z M3622,795c297-35,398-55,398-80c0-23-33-26-125-10c-90,16-406,93-414,101C3475,812,3472,812,3622,795
		z M4206,695c16-13,17-16,4-25c-8-5-32-10-52-10c-70,0-91,23-35,39C4170,712,4184,712,4206,695z M4515,640c63-6,160-24,225-43
		l115-32l-80-3c-44-2-118,2-165,8c-95,12-310,60-310,69C4300,650,4405,651,4515,640z M5166,519c71-12,185-48,199-61
		c28-28-275,14-405,56l-45,14l96,1C5063,530,5133,525,5166,519z M5757,416c121-26,260-73,240-81c-28-11-205,1-260,19
		c-49,15-117,55-117,69C5620,434,5683,431,5757,416z M6227,309c41-15,12-29-62-29c-61,0-105,14-75,24c8,2,22,7,30,9
		C6146,322,6198,320,6227,309z M6854,204c26-10,18-31-13-37c-34-7-101,2-101,13C6740,199,6822,216,6854,204z"/>
	<path class="st0" d="M9185,12242c-103-63-178-238-179-417c-1-82,2-95,31-150c116-221,291-250,382-63c42,86,54,160,48,303
		c-7,173-48,276-131,326C9296,12265,9225,12266,9185,12242z"/>
	<path class="st0" d="M8544,12231c-35-21-84-80-84-101c0-8,8-10,23-6c12,3,49,9,83,12c46,5,63,3,70-7c5-8,27-68,49-134
		c56-163,141-366,240-571c106-221,135-246,76-67c-80,243-295,748-372,871C8612,12255,8585,12256,8544,12231z"/>
	<path class="st0" d="M9910,12092c-59-27-114-102-92-124c24-24,141,83,128,117C9940,12101,9933,12102,9910,12092z"/>
	<path class="st0" d="M9749,11783c-87-138-219-416-204-431c9-9,21,8,89,122c58,98,154,295,171,354C9817,11871,9792,11850,9749,11783
		z"/>
	<path class="st0" d="M8180,11409c0-47,521-463,645-515c34-14,35-13,35,7c0,57-370,357-601,488C8200,11422,8180,11427,8180,11409z"
		/>
	<path class="st0" d="M9681,11251c-12-22,0-72,30-120c27-45,44-28,44,43C9755,11250,9707,11300,9681,11251z"/>
	<path class="st0" d="M9479,11209c-21-40-6-123,33-186c20-31,41-59,47-61c15-5,14,59-4,143C9529,11226,9506,11258,9479,11209z"/>
	<path class="st0" d="M8281,11050c-139-101-178-347-86-536c45-92,142-184,193-184c32,0,87,54,110,107c33,79,45,163,39,285
		c-5,120-22,185-65,250c-28,43-108,108-132,108C8331,11080,8304,11066,8281,11050z"/>
	<path class="st0" d="M10220,10987c-72-30-226-118-291-167c-28-21-62-54-76-73c-54-77-54-304,0-385c57-85,310-191,429-180
		c57,6,81,25,97,78c18,62,33,310,29,485C10401,11003,10367,11047,10220,10987z"/>
	<path class="st0" d="M9315,10796c-69-22-192-86-235-123c-141-121-68-231,162-241c144-6,207,21,271,118c35,51,13,120-65,203
		C9399,10806,9372,10815,9315,10796z M9291,10700c25,0,49-42,49-84c0-37-6-51-34-80c-83-88-195-5-139,104c19,36,78,74,101,65
		C9276,10702,9286,10700,9291,10700z"/>
	<path class="st0" d="M8715,10292c-199-112-555-360-555-388c0-41,103,7,250,117c146,109,231,165,273,180c57,20,82,2,139-106
		c77-146,140-200,118-99c-23,100-130,316-160,321C8772,10319,8743,10307,8715,10292z"/>
	<path class="st0" d="M9788,10090c133-124,534-381,558-357c11,11-27,66-73,107c-118,105-465,311-522,310
		C9727,10149,9730,10144,9788,10090z"/>
	<path class="st0" d="M9223,9660c-150-34-222-297-152-550c11-40,28-88,38-109c52-101,163-138,261-88c86,43,116,146,108,371
		C9468,9554,9373,9694,9223,9660z"/>
	<path class="st0" d="M9573,9605c4-22,36-128,71-235c119-360,179-470,216-400c23,44-40,215-183,493C9589,9636,9562,9672,9573,9605z"
		/>
	<path class="st0" d="M8811,9448c-21-46-60-145-86-221c-74-219-66-288,45-354c39-24,66-33,97-33c63,0,56,19-37,96
		c-44,36-85,74-90,84c-18,34-10,80,31,188c76,198,111,322,90,322C8855,9530,8833,9493,8811,9448z"/>
	<path class="st0" d="M7401,8651c-25-25-27-50-7-77c14-18,15-18,46,11c21,21,30,37,28,55C7464,8673,7428,8678,7401,8651z"/>
	<path class="st0" d="M7615,8256c-19-28-9-58,26-76c45-25,94,51,57,88C7677,8289,7632,8282,7615,8256z"/>
	<path class="st0" d="M7278,6965c-17-39,5-103,39-111c60-15,84,50,38,105C7323,6997,7294,6999,7278,6965z"/>
	<path class="st0" d="M8757,7411c-47-44-45-58,7-41c72,23,115,80,61,80C8809,7450,8783,7435,8757,7411z"/>
	<path class="st0" d="M6286,6341c-3-5,16-23,42-40c106-68,132-124,92-206c-19-40-98-115-120-115c-4,0-5,20-3,45c5,42,4,45-31,66
		c-20,11-36,27-36,34s23,32,50,55c28,23,47,46,44,52c-4,6-28,8-55,6c-62-6-134-50-173-105c-26-38-28-45-17-71c16-38,121-117,184-138
		c45-15,52-15,92,1c46,17,99,69,117,114c6,14,10,56,11,92c0,84-36,169-85,199C6364,6350,6296,6357,6286,6341z"/>
	<path class="st0" d="M9160,6102c0-64,6-78,27-61c15,13,17,57,3,93C9174,6178,9160,6163,9160,6102z"/>
	<path class="st0" d="M9617,6104c-170-52-238-315-138-530c58-124,150-192,245-182c59,7,130,49,166,100c43,58,82,187,83,273
		c1,92-21,154-85,239C9805,6114,9734,6140,9617,6104z"/>
	<path class="st0" d="M8938,6069c-26-19-143-161-203-244c-15-22,33,21,109,96c75,75,136,144,136,153C8980,6095,8971,6094,8938,6069z
		"/>
	<path class="st0" d="M10190,5963c-40-45-100-153-100-180c0-7,7-13,15-13c16,0,49,31,92,87c31,41,57,49,88,29c14-9,81-81,151-161
		c69-80,131-145,136-145c44,0-173,340-256,400C10260,6022,10239,6019,10190,5963z"/>
	<path class="st0" d="M9274,5722c14-95,154-440,183-449c33-11-115,401-169,468l-20,24L9274,5722z"/>
	<path class="st0" d="M8604,5615c-4-10,0-31,11-50c20-39,195-211,343-339c104-90,166-158,160-176c-5-17-97,33-248,135
		c-147,99-285,174-298,160c-19-19,167-163,443-341c172-112,222-141,230-132c3,3-7,32-24,63s-33,73-37,93c-9,53-71,129-209,256
		c-66,61-175,165-242,230C8632,5612,8609,5630,8604,5615z"/>
	<path class="st0" d="M10549,5192c-168-110-357-282-311-282c37,0,365,259,392,310C10646,5250,10629,5244,10549,5192z"/>
	<path class="st0" d="M9930,4985c0-59,123-190,145-154c14,22-10,74-54,120C9974,5000,9930,5016,9930,4985z"/>
	<path class="st0" d="M10659,4977c-68-29-159-83-265-158c-169-121-199-181-192-378c5-135,19-172,92-239c100-93,306-209,385-219
		c41-5,51-2,79,22c66,56,97,235,89,515c-9,292-54,481-116,480C10722,5000,10690,4989,10659,4977z"/>
	<path class="st0" d="M8692,4949c-134-68-189-338-110-545c30-77,107-159,161-169c96-18,172,31,232,149l40,79v121
		c-1,134-16,189-76,280C8880,4953,8772,4990,8692,4949z"/>
	<path class="st0" d="M9637,4756c-97-42-168-88-207-132c-66-75-83-151-41-185c27-22,103-26,119-6c6,7,10,40,10,73
		c-2,70,18,112,74,151c36,24,39,25,57,9c10-9,24-35,31-59c20-70,48-116,80-132c17-9,30-22,30-29c0-8-18-38-40-67c-22-30-40-57-40-62
		s33,9,72,30c51,27,82,52,103,82c58,82,34,209-60,319C9779,4801,9745,4803,9637,4756z"/>
	<path class="st0" d="M9109,4196c-92-38-449-224-509-264c-59-39-65-55-26-60c38-5,128,37,387,178c132,73,242,130,243,128
		c1-1,28-40,60-86c61-88,92-114,102-88c8,21-46,134-86,179c-27,32-38,37-74,37C9184,4219,9140,4209,9109,4196z"/>
	<path class="st0" d="M10085,4100c73-79,610-450,651-450c8,0,14,10,14,24c0,33-67,87-285,231c-189,126-335,210-380,221l-30,7
		L10085,4100z"/>
	<path class="st0" d="M9483,3849c-56-16-35-39,35-39c44,0,72,15,57,29C9559,3855,9517,3859,9483,3849z"/>
	<path class="st0" d="M9363,3648c-59-63-215-456-229-579c-6-51-4-58,17-73c54-37,75-6,88,134c12,124,36,211,103,379
		c27,68,48,133,46,143C9385,3671,9384,3671,9363,3648z"/>
	<path class="st0" d="M9615,3621c-78-36-107-90-125-239c-17-134,5-315,46-377c31-47,100-79,170-79c112,0,185,64,237,210
		c47,131,43,201-19,342C9864,3615,9733,3676,9615,3621z"/>
	<path class="st0" d="M10050,3596c0-114,126-476,190-543c20-22,22-22,58-7c53,22,122,83,156,138c39,63,24,78-34,34
		c-98-75-117-81-158-52c-33,23-67,96-108,235c-39,134-72,211-91,217C10055,3620,10050,3612,10050,3596z"/>
	<path class="st0" d="M7560,4594c-71-31-86-64-29-64c49,0,109,41,109,74C7640,4615,7595,4609,7560,4594z"/>
	<path class="st0" d="M5993,10920c-41-17-25-30,36-30c59,0,86,14,60,31C6071,10932,6022,10931,5993,10920z"/>
	<path class="st0" d="M6095,10636c-18-13-18-15-4-21c9-3,38-5,65-3c36,2,49,7,49,18C6205,10651,6122,10656,6095,10636z"/>
	<path class="st0" d="M6160,10254c-32-15-33-17-15-24c29-12,83-12,107,1c21,11,21,12,3,25C6231,10274,6204,10273,6160,10254z"/>
	<path class="st0" d="M6504,9886c-7-39,3-96,17-96c21,0,32,49,20,90C6526,9929,6513,9931,6504,9886z"/>
	<path class="st0" d="M6210,9868c-24-10-24-10-5-18c28-12,127-12,145,0C6387,9873,6261,9890,6210,9868z"/>
	<path class="st0" d="M6328,9538c-38-13-35-24,8-31c46-8,94,2,94,18C6430,9550,6378,9557,6328,9538z"/>
	<path class="st0" d="M6755,8646c-20-14-19-15,6-21c43-11,104-2,104,15C6865,8661,6782,8666,6755,8646z"/>
	<path class="st0" d="M2673,6801c-106-77-123-283-37-455c26-52,61-96,76-96c19,0,5,78-33,177c-52,136-51,176,9,278
		C2759,6827,2754,6860,2673,6801z"/>
	<path class="st0" d="M2142,6022c7-90,43-195,71-200c34-7,17,122-31,231C2150,6125,2136,6115,2142,6022z"/>
	<path class="st0" d="M2540,6000c-25-25-26-52-2-73c37-34,92-11,92,38c0,24-33,55-57,55C2566,6020,2551,6011,2540,6000z"/>
	<path class="st0" d="M2477,5766c-10-25-8-99,2-115c16-24,31-1,31,48C2510,5752,2488,5796,2477,5766z"/>
	<path class="st0" d="M2195,5512c-3-21-1-51,5-67c11-29,12-30,26-10c11,14,14,32,9,59C2225,5562,2205,5571,2195,5512z"/>
	<path class="st0" d="M1875,5488c14-45,51-103,68-106c38-7,9,76-39,113C1877,5516,1868,5513,1875,5488z"/>
</g>
</svg>
